<svg width="16" height="17" viewBox="0 0 16 17" fill="none" xmlns="http://www.w3.org/2000/svg">
<g clip-path="url(#clip0_32_3431)">
<rect width="16" height="16" transform="translate(0 0.820068)" fill="white" fill-opacity="0.01"/>
<g clip-path="url(#clip1_32_3431)">
<path d="M13.9996 1.81934C14.2649 1.81934 14.5192 1.92469 14.7067 2.11223C14.8943 2.29977 14.9996 2.55412 14.9996 2.81934V14.8193C14.9996 15.0846 14.8943 15.3389 14.7067 15.5264C14.5192 15.714 14.2649 15.8193 13.9996 15.8193H1.99963C1.73442 15.8193 1.48006 15.714 1.29253 15.5264C1.10499 15.3389 0.999634 15.0846 0.999634 14.8193V2.81934C0.999634 2.55412 1.10499 2.29977 1.29253 2.11223C1.48006 1.92469 1.73442 1.81934 1.99963 1.81934H13.9996ZM1.99963 0.819336C1.4692 0.819336 0.960493 1.03005 0.58542 1.40512C0.210348 1.7802 -0.000366211 2.2889 -0.000366211 2.81934V14.8193C-0.000366211 15.3498 0.210348 15.8585 0.58542 16.2335C0.960493 16.6086 1.4692 16.8193 1.99963 16.8193H13.9996C14.5301 16.8193 15.0388 16.6086 15.4138 16.2335C15.7889 15.8585 15.9996 15.3498 15.9996 14.8193V2.81934C15.9996 2.2889 15.7889 1.7802 15.4138 1.40512C15.0388 1.03005 14.5301 0.819336 13.9996 0.819336H1.99963Z" fill="#0D6EFD"/>
<path d="M7.99963 4.81934C8.13224 4.81934 8.25942 4.87201 8.35319 4.96578C8.44696 5.05955 8.49963 5.18673 8.49963 5.31934V8.31934H11.4996C11.6322 8.31934 11.7594 8.37201 11.8532 8.46578C11.947 8.55955 11.9996 8.68673 11.9996 8.81934C11.9996 8.95194 11.947 9.07912 11.8532 9.17289C11.7594 9.26666 11.6322 9.31934 11.4996 9.31934H8.49963V12.3193C8.49963 12.4519 8.44696 12.5791 8.35319 12.6729C8.25942 12.7667 8.13224 12.8193 7.99963 12.8193C7.86703 12.8193 7.73985 12.7667 7.64608 12.6729C7.55231 12.5791 7.49963 12.4519 7.49963 12.3193V9.31934H4.49963C4.36703 9.31934 4.23985 9.26666 4.14608 9.17289C4.05231 9.07912 3.99963 8.95194 3.99963 8.81934C3.99963 8.68673 4.05231 8.55955 4.14608 8.46578C4.23985 8.37201 4.36703 8.31934 4.49963 8.31934H7.49963V5.31934C7.49963 5.18673 7.55231 5.05955 7.64608 4.96578C7.73985 4.87201 7.86703 4.81934 7.99963 4.81934Z" fill="#0D6EFD"/>
</g>
</g>
<defs>
<clipPath id="clip0_32_3431">
<rect width="16" height="16" fill="white" transform="translate(0 0.820068)"/>
</clipPath>
<clipPath id="clip1_32_3431">
<rect width="16" height="16" fill="white" transform="translate(0 0.820068)"/>
</clipPath>
</defs>
</svg>
